<svg xmlns="http://www.w3.org/2000/svg" viewBox="0 0 1200 340" role="img" aria-label="Verification pipeline: signed statement through four gates to a verdict, any gate fails closed">
  <defs>
    <linearGradient id="dg" x1="0" y1="0" x2="0" y2="1"><stop offset="0" stop-color="#0E2138"/><stop offset="1" stop-color="#0A192F"/></linearGradient>
    <marker id="ah" viewBox="0 0 10 10" refX="8" refY="5" markerWidth="7" markerHeight="7" orient="auto-start-reverse"><path d="M0 0 L10 5 L0 10 z" fill="#8aa0bd"/></marker>
    <marker id="aha" viewBox="0 0 10 10" refX="8" refY="5" markerWidth="7" markerHeight="7" orient="auto-start-reverse"><path d="M0 0 L10 5 L0 10 z" fill="#E8951C"/></marker>
    <marker id="ahf" viewBox="0 0 10 10" refX="8" refY="5" markerWidth="7" markerHeight="7" orient="auto-start-reverse"><path d="M0 0 L10 5 L0 10 z" fill="#6B4A22"/></marker>
  </defs>
  <rect width="1200" height="340" fill="url(#dg)"/>
  <g stroke="#3d5a7f" stroke-width="2" marker-end="url(#ah)">
    <line x1="182" y1="120" x2="212" y2="120"/><line x1="374" y1="120" x2="404" y2="120"/>
    <line x1="566" y1="120" x2="596" y2="120"/><line x1="758" y1="120" x2="788" y2="120"/>
  </g>
  <line x1="950" y1="120" x2="980" y2="120" stroke="#E8951C" stroke-width="2.4" marker-end="url(#aha)"/>
  <g font-family="ui-monospace,Menlo,Consolas,monospace">
    <rect x="26" y="86" width="156" height="68" rx="9" fill="#132B47" stroke="#2C4A6F"/>
    <text x="104" y="74" text-anchor="middle" font-size="11" fill="#7E94B4">DSSE</text>
    <text x="104" y="114" text-anchor="middle" font-size="14" fill="#EAF1FB" font-weight="600">Signed</text>
    <text x="104" y="133" text-anchor="middle" font-size="14" fill="#EAF1FB" font-weight="600">Statement</text>
    <rect x="218" y="86" width="156" height="68" rx="9" fill="#132B47" stroke="#2C4A6F"/>
    <text x="296" y="114" text-anchor="middle" font-size="13" fill="#EAF1FB" font-weight="600">GATE 0</text>
    <text x="296" y="133" text-anchor="middle" font-size="12" fill="#B9C8DD">well-formed</text>
    <rect x="410" y="86" width="156" height="68" rx="9" fill="#132B47" stroke="#2C4A6F"/>
    <text x="488" y="114" text-anchor="middle" font-size="13" fill="#EAF1FB" font-weight="600">GATE 1</text>
    <text x="488" y="133" text-anchor="middle" font-size="12" fill="#B9C8DD">coverage valid</text>
    <rect x="602" y="86" width="156" height="68" rx="9" fill="#241B0B" stroke="#E8951C"/>
    <text x="680" y="114" text-anchor="middle" font-size="13" fill="#FCE3B8" font-weight="600">recompute</text>
    <text x="680" y="133" text-anchor="middle" font-size="12" fill="#F5A623">result ==</text>
    <rect x="794" y="86" width="156" height="68" rx="9" fill="#132B47" stroke="#2C4A6F"/>
    <text x="872" y="114" text-anchor="middle" font-size="13" fill="#EAF1FB" font-weight="600">GATE 2</text>
    <text x="872" y="133" text-anchor="middle" font-size="12" fill="#B9C8DD">evidence tier</text>
    <rect x="986" y="86" width="188" height="68" rx="9" fill="#0F2138" stroke="#E8951C" stroke-width="2"/>
    <text x="1080" y="114" text-anchor="middle" font-size="14" fill="#F4F8FD" font-weight="600">verdict +</text>
    <text x="1080" y="133" text-anchor="middle" font-size="13" fill="#F5A623">per-row tier</text>
  </g>
  <g stroke="#6B4A22" stroke-width="1.6" stroke-dasharray="4 4" fill="none" marker-end="url(#ahf)">
    <path d="M296 154 L296 250 L520 250"/><path d="M488 154 L488 235 L520 235"/>
    <path d="M680 154 L680 220 L520 220"/>
  </g>
  <rect x="516" y="222" width="300" height="58" rx="9" fill="#1B1206" stroke="#6B4A22"/>
  <text x="666" y="248" text-anchor="middle" font-family="ui-monospace,Menlo,Consolas,monospace" font-size="13" fill="#E8951C" font-weight="600">attestation invalid · fail-closed</text>
  <text x="666" y="267" text-anchor="middle" font-family="-apple-system,system-ui,Roboto,sans-serif" font-size="12" fill="#B9A88C">no result emitted, no tiers</text>
  <text x="330" y="205" font-family="-apple-system,system-ui,Roboto,sans-serif" font-size="11.5" fill="#8B7355">any gate fails</text>
</svg>
