<svg xmlns="http://www.w3.org/2000/svg" viewBox="0 0 640 900" role="img" aria-label="Verification pipeline: a signed statement passes four byte-pure gates to a verdict; any gate fails closed with no result and no tiers.">
  <defs>
    <marker id="ah" viewBox="0 0 10 10" refX="8" refY="5" markerWidth="6.5" markerHeight="6.5" orient="auto-start-reverse"><path d="M0 0 L10 5 L0 10 z" fill="#8aa0bd"/></marker>
    <marker id="aha" viewBox="0 0 10 10" refX="8" refY="5" markerWidth="6.5" markerHeight="6.5" orient="auto-start-reverse"><path d="M0 0 L10 5 L0 10 z" fill="#E8951C"/></marker>
  </defs>
  <rect width="640" height="900" fill="#0A192F"/>
  <!-- down connectors on the spine x=320 -->
  <g stroke="#3d5a7f" stroke-width="2.4" marker-end="url(#ah)">
    <line x1="320" y1="120" x2="320" y2="153"/>
    <line x1="320" y1="245" x2="320" y2="278"/>
    <line x1="320" y1="370" x2="320" y2="403"/>
    <line x1="320" y1="495" x2="320" y2="528"/>
  </g>
  <line x1="320" y1="620" x2="320" y2="653" stroke="#E8951C" stroke-width="2.6" marker-end="url(#aha)"/>
  <g font-family="ui-monospace,Menlo,Consolas,monospace" text-anchor="middle">
    <!-- s1 statement y30 -->
    <rect x="160" y="30" width="320" height="90" rx="12" fill="#132B47" stroke="#2C4A6F" stroke-width="1.6"/>
    <text x="320" y="72" font-size="32" fill="#EAF1FB" font-weight="600">Signed Statement</text>
    <text x="320" y="102" font-size="24" fill="#7E94B4">DSSE envelope</text>
    <!-- s2 gate0 y155 -->
    <rect x="160" y="155" width="320" height="90" rx="12" fill="#132B47" stroke="#2C4A6F" stroke-width="1.6"/>
    <text x="320" y="197" font-size="32" fill="#EAF1FB" font-weight="600">GATE 0</text>
    <text x="320" y="227" font-size="26" fill="#B9C8DD">well-formed</text>
    <!-- s3 gate1 y280 -->
    <rect x="160" y="280" width="320" height="90" rx="12" fill="#132B47" stroke="#2C4A6F" stroke-width="1.6"/>
    <text x="320" y="322" font-size="32" fill="#EAF1FB" font-weight="600">GATE 1</text>
    <text x="320" y="352" font-size="26" fill="#B9C8DD">coverage valid</text>
    <!-- s4 recompute y405 (amber) -->
    <rect x="160" y="405" width="320" height="90" rx="12" fill="#241B0B" stroke="#E8951C" stroke-width="1.8"/>
    <text x="320" y="447" font-size="32" fill="#FCE3B8" font-weight="600">recompute</text>
    <text x="320" y="477" font-size="26" fill="#F5A623">result ==</text>
    <!-- s5 gate2 y530 -->
    <rect x="160" y="530" width="320" height="90" rx="12" fill="#132B47" stroke="#2C4A6F" stroke-width="1.6"/>
    <text x="320" y="572" font-size="32" fill="#EAF1FB" font-weight="600">GATE 2</text>
    <text x="320" y="602" font-size="26" fill="#B9C8DD">evidence tier</text>
    <!-- s6 verdict y655 (amber outline) -->
    <rect x="160" y="655" width="320" height="90" rx="12" fill="#0F2138" stroke="#E8951C" stroke-width="2.4"/>
    <text x="320" y="697" font-size="32" fill="#F4F8FD" font-weight="600">verdict +</text>
    <text x="320" y="727" font-size="26" fill="#F5A623">per-row tier</text>
  </g>
  <!-- fail-closed band -->
  <rect x="60" y="800" width="520" height="72" rx="12" fill="#1B1206" stroke="#6B4A22" stroke-width="1.6"/>
  <text x="320" y="835" text-anchor="middle" font-family="ui-monospace,Menlo,Consolas,monospace" font-size="27" fill="#E8951C" font-weight="600">any gate fails closed</text>
  <text x="320" y="862" text-anchor="middle" font-family="-apple-system,system-ui,Roboto,sans-serif" font-size="24" fill="#B9A88C">attestation invalid: no result, no tiers</text>
</svg>
